<?xml version="1.0" standalone="no"?>
<!DOCTYPE svg PUBLIC "-//W3C//DTD SVG 20010904//EN"
 "http://www.w3.org/TR/2001/REC-SVG-20010904/DTD/svg10.dtd">
<svg version="1.0" xmlns="http://www.w3.org/2000/svg"
 width="512.000000pt" height="512.000000pt" viewBox="0 0 512.000000 512.000000"
 preserveAspectRatio="xMidYMid meet">
<metadata>
Created by potrace 1.14, written by Peter Selinger 2001-2017
</metadata>
<g transform="translate(0.000000,512.000000) scale(0.100000,-0.100000)"
fill="#000000" stroke="none">
<path d="M2461 4859 c-19 -11 -42 -30 -52 -42 -18 -22 -42 -108 -54 -197 -4
-25 -10 -63 -15 -85 -5 -22 -11 -62 -15 -89 -3 -27 -8 -52 -9 -55 -2 -3 -7
-26 -10 -51 -3 -25 -8 -55 -10 -66 -2 -12 -7 -37 -10 -55 -3 -19 -8 -45 -11
-59 -3 -14 -7 -43 -10 -65 -3 -22 -7 -47 -10 -55 -3 -8 -7 -32 -9 -54 -3 -21
-7 -46 -10 -55 -3 -9 -7 -36 -10 -61 -3 -25 -8 -56 -11 -70 -3 -14 -8 -38 -10
-55 -3 -16 -10 -56 -16 -87 -5 -32 -12 -70 -15 -85 -2 -16 -7 -44 -10 -63 -4
-19 -8 -44 -9 -55 -2 -11 -6 -33 -9 -50 -11 -55 -15 -79 -26 -145 -5 -36 -12
-76 -15 -90 -2 -14 -11 -68 -20 -120 -21 -124 -22 -131 -29 -160 -3 -14 -8
-41 -11 -60 -2 -19 -6 -44 -9 -55 -2 -11 -7 -40 -10 -65 -4 -25 -12 -68 -17
-97 l-10 -52 -392 -3 c-383 -3 -393 -4 -434 -25 -53 -28 -78 -53 -106 -106
l-22 -42 -3 -1072 -2 -1073 119 0 119 0 6 27 c3 16 7 48 10 73 3 25 13 101 22
170 9 69 18 139 19 157 4 29 10 74 20 143 2 14 6 45 9 70 5 42 35 272 41 315
1 11 5 45 9 75 4 30 9 66 11 80 2 14 6 50 10 80 4 30 9 69 11 85 3 17 7 48 9
70 3 22 9 72 14 110 6 39 13 88 15 110 3 22 12 91 21 153 8 62 15 115 15 117
0 3 198 5 440 5 l440 0 0 -920 0 -920 120 0 c66 0 120 2 120 5 0 2 7 55 15
117 9 62 18 131 21 153 2 22 7 58 11 80 3 22 7 51 8 65 5 51 16 136 20 150 2
8 7 42 10 75 3 33 12 103 20 155 8 52 17 122 20 154 3 33 7 71 10 85 2 14 11
82 20 151 9 69 19 141 21 160 3 19 7 51 9 70 2 19 16 121 30 225 14 105 25
191 25 193 0 1 72 2 160 2 121 0 160 -3 161 -12 0 -7 2 -20 3 -28 2 -8 6 -37
10 -65 3 -27 14 -115 25 -195 11 -80 22 -170 26 -200 3 -30 8 -66 10 -80 4
-26 8 -52 25 -190 6 -47 13 -96 15 -110 2 -14 6 -45 9 -70 3 -25 10 -76 15
-115 6 -38 12 -92 15 -120 3 -27 8 -59 10 -70 2 -11 7 -47 10 -80 4 -33 9 -73
11 -90 5 -29 31 -226 42 -315 3 -25 7 -52 9 -60 1 -8 3 -21 3 -27 1 -10 32
-13 121 -13 l120 0 1 1168 c0 642 2 1174 4 1182 2 8 8 47 15 85 6 39 13 84 17
100 3 17 6 37 8 45 1 8 4 29 8 45 3 17 9 48 12 70 3 22 10 63 15 90 5 28 12
66 15 85 7 43 13 78 19 107 3 11 8 43 12 70 3 26 8 57 10 68 2 11 7 34 9 50 3
17 17 93 30 170 13 77 27 156 30 175 3 19 8 46 10 60 8 36 12 59 20 110 4 25
9 52 10 60 13 71 19 107 20 120 1 8 14 83 29 165 15 83 29 166 32 185 4 32 14
88 29 165 4 17 9 57 12 90 4 52 2 65 -19 94 -12 19 -36 44 -51 55 -28 21 -35
21 -755 23 -720 3 -727 3 -761 -18z"/>
</g>
</svg>
